<svg xmlns="http://www.w3.org/2000/svg" viewBox="0 0 96 96" role="img" aria-labelledby="title desc">
  <title id="title">maki-skills logo</title>
  <desc id="desc">A flat geometric registry icon made from stacked skill tiles and a linking rail.</desc>
  <rect width="96" height="96" rx="20" fill="#0f172a"/>
  <path d="M25 24h31a7 7 0 0 1 7 7v8H32a7 7 0 0 1-7-7z" fill="#38bdf8"/>
  <path d="M25 42h46a7 7 0 0 1 7 7v8H32a7 7 0 0 1-7-7z" fill="#f59e0b"/>
  <path d="M25 60h38a7 7 0 0 1 7 7v8H32a7 7 0 0 1-7-7z" fill="#22c55e"/>
  <path d="M68 31v36" stroke="#e2e8f0" stroke-width="6" stroke-linecap="round"/>
  <circle cx="68" cy="31" r="8" fill="#e2e8f0"/>
  <circle cx="68" cy="49" r="8" fill="#e2e8f0"/>
  <circle cx="68" cy="67" r="8" fill="#e2e8f0"/>
</svg>
